<?xml version="1.0" standalone="no"?>
<!DOCTYPE svg PUBLIC "-//W3C//DTD SVG 20010904//EN"
 "http://www.w3.org/TR/2001/REC-SVG-20010904/DTD/svg10.dtd">
<svg version="1.0" xmlns="http://www.w3.org/2000/svg"
 width="130.000000pt" height="130.000000pt" viewBox="0 0 130.000000 130.000000"
 preserveAspectRatio="xMidYMid meet">
<metadata>
Created by potrace 1.11, written by Peter Selinger 2001-2013
</metadata>
<g transform="translate(0.000000,130.000000) scale(0.100000,-0.100000)"
fill="#000000" stroke="none">
<path d="M303 1030 c-6 -8 -25 -42 -43 -75 -18 -33 -41 -72 -51 -87 -11 -14
-19 -28 -19 -31 0 -3 -38 -71 -85 -152 -47 -81 -83 -150 -80 -153 3 -4 41 -7
83 -9 l77 -3 90 167 c50 92 96 180 104 196 l14 28 39 -73 c21 -40 38 -76 38
-80 0 -4 -19 -8 -41 -10 l-42 -3 1 -70 c0 -38 1 -75 1 -81 1 -7 29 -11 74 -12
39 0 80 -1 89 -1 15 -1 17 -17 17 -152 0 -83 2 -153 5 -156 4 -5 70 -7 138 -4
l26 1 0 150 c-1 83 2 153 6 157 3 3 42 6 86 5 l80 -2 0 85 0 84 -45 3 -44 3
43 78 43 78 83 -163 c129 -252 103 -223 203 -225 69 -2 85 0 81 11 -10 26
-265 491 -275 501 -6 6 -52 10 -104 10 l-94 0 -73 -141 c-40 -78 -76 -140 -80
-138 -3 2 -27 45 -53 94 -25 50 -58 112 -74 138 l-27 47 -91 0 c-71 1 -93 -3
-100 -15z"/>
</g>
</svg>
